<?xml version="1.0" standalone="no"?>
<!DOCTYPE svg PUBLIC "-//W3C//DTD SVG 20010904//EN"
 "http://www.w3.org/TR/2001/REC-SVG-20010904/DTD/svg10.dtd">
<svg version="1.0" xmlns="http://www.w3.org/2000/svg"
 width="512.000000pt" height="512.000000pt" viewBox="0 0 512.000000 512.000000"
 preserveAspectRatio="xMidYMid meet">
<metadata>
Created by potrace 1.14, written by Peter Selinger 2001-2017
</metadata>
<g transform="translate(0.000000,512.000000) scale(0.100000,-0.100000)"
fill="#000000" stroke="none">
<path d="M519 5113 c-6 -64 0 -4323 7 -4335 5 -8 79 -76 164 -149 162 -139
444 -384 608 -527 52 -45 97 -82 101 -82 3 0 5 89 4 197 0 109 -4 520 -7 913
-3 393 -8 1059 -11 1478 l-6 764 78 -61 c43 -34 103 -81 133 -104 30 -23 189
-146 352 -274 164 -128 299 -229 301 -225 2 4 3 252 3 551 l-1 544 -169 129
c-94 71 -184 140 -200 153 -17 13 -105 80 -196 150 -91 69 -173 132 -183 141
-10 8 -42 32 -70 52 -29 20 -54 39 -57 42 -4 5 -116 91 -515 395 -44 34 -137
105 -207 159 -71 53 -128 94 -129 89z"/>
<path d="M4200 4825 c-212 -162 -466 -357 -565 -432 -99 -76 -187 -143 -195
-150 -8 -6 -107 -82 -220 -167 -113 -86 -218 -167 -235 -181 -16 -13 -51 -40
-76 -59 l-46 -35 0 -550 c0 -303 1 -551 2 -551 2 0 92 70 200 154 17 13 167
131 335 261 168 131 311 242 317 247 13 11 14 47 -3 -1972 -11 -1459 -11
-1381 6 -1366 64 57 578 501 624 541 32 28 77 67 100 88 22 20 64 56 93 80
l52 42 1 2173 c0 1194 -1 2172 -2 2172 -2 -1 -176 -133 -388 -295z"/>
</g>
</svg>
