<?xml version="1.0" standalone="no"?>
<!DOCTYPE svg PUBLIC "-//W3C//DTD SVG 20010904//EN"
 "http://www.w3.org/TR/2001/REC-SVG-20010904/DTD/svg10.dtd">
<svg version="1.0" xmlns="http://www.w3.org/2000/svg"
 width="700.000000pt" height="700.000000pt" viewBox="0 0 700.000000 700.000000"
 preserveAspectRatio="xMidYMid meet">
<metadata>
Created by potrace 1.14, written by Peter Selinger 2001-2017
</metadata>
<g transform="translate(0.000000,700.000000) scale(0.100000,-0.100000)"
fill="#000000" stroke="none">
<path d="M3280 6994 c-19 -2 -84 -9 -145 -14 -410 -40 -846 -169 -1225 -362
-343 -176 -628 -387 -908 -672 -561 -572 -882 -1251 -984 -2081 -16 -129 -16
-599 0 -730 88 -729 352 -1348 803 -1885 122 -145 351 -369 494 -483 1112
-886 2651 -1014 3885 -325 292 163 525 341 771 587 292 293 486 561 665 921
416 837 477 1812 168 2700 -140 404 -352 777 -629 1105 -119 141 -349 366
-490 478 -509 408 -1119 663 -1775 743 -118 14 -554 27 -630 18z m-1271 -1545
c25 -9 198 -201 717 -793 377 -429 697 -789 712 -799 33 -22 94 -17 124 10 12
10 321 360 688 778 367 418 680 771 694 785 33 30 90 33 130 6 59 -38 56 80
56 -1933 0 -1739 -1 -1850 -18 -1883 -34 -69 -46 -71 -414 -68 l-328 3 -32 33
-33 32 -5 1016 -5 1016 -367 -415 c-404 -457 -403 -456 -476 -420 -26 12 -145
141 -397 425 l-360 408 -5 -1008 c-5 -955 -6 -1009 -23 -1036 -36 -54 -58 -57
-407 -54 -305 3 -320 4 -347 24 -15 11 -34 32 -40 45 -10 19 -12 423 -10 1896
l2 1872 29 30 c16 16 38 32 50 34 11 2 24 5 27 6 3 0 21 -4 38 -10z"/>
</g>
</svg>
